# AST/ASF file generated using VICON BodyLanguage
# -----------------------------------------------
:version 1.10
:name VICON
:units
  mass 1.0
  length 0.45
  angle deg
:documentation
   .ast/.asf automatically generated from VICON data using
   VICON BodyBuilder and BodyLanguage model FoxedUp or BRILLIANT.MOD
:root
   order TX TY TZ RX RY RZ
   axis XYZ
   position 0 0 0  
   orientation 0 0 0 
:bonedata
  begin
     id 1 
     name lhipjoint
     direction 0.624716 -0.669793 0.401383 
     length 2.38238 
     axis 0 0 0  XYZ
  end
  begin
     id 2 
     name lfemur
     direction 0.34202 -0.939693 0  
     length 6.4574  
     axis 0 0 20  XYZ
    dof rx ry rz
    limits (-160.0 20.0)
           (-70.0 70.0)
           (-60.0 70.0)
  end
  begin
     id 3 
     name ltibia
     direction 0.34202 -0.939693 0   
     length 7.68739   
     axis 0 0 20   XYZ
    dof rx
    limits (-10.0 170.0)
  end
  begin
     id 4 
     name lfoot
     direction 0.0681309 -0.187188 0.979959   
     length 2.46615   
     axis -90 7.62852e-016 20   XYZ
    dof rx rz
    limits (-45.0 90.0)
           (-70.0 20.0)
  end
  begin
     id 5 
     name ltoes
     direction 1.53566e-011 -4.21819e-011 1   
     length 1.2376   
     axis -90 7.62852e-016 20   XYZ
    dof rx
    limits (-90.0 20.0)
  end
  begin
     id 6 
     name rhipjoint
     direction -0.644473 -0.655875 0.393043   
     length 2.43293  
     axis 0 0 0  XYZ 
  end
  begin
     id 7 
     name rfemur
     direction -0.34202 -0.939693 0   
     length 6.7025   
     axis 0 0 -20   XYZ
    dof rx ry rz
    limits (-160.0 20.0)
           (-70.0 70.0)
           (-70.0 60.0)
  end
  begin
     id 8 
     name rtibia
     direction -0.34202 -0.939693 0   
     length 7.80547   
     axis 0 0 -20   XYZ
    dof rx
    limits (-10.0 170.0)
 end
 begin
     id 9 
     name rfoot
     direction -0.0756734 -0.207911 0.975216   
     length 2.40315  
     axis -90 -7.62852e-016 -20   XYZ
    dof rx rz
    limits (-45.0 90.0)
           (-20.0 70.0)
  end
  begin
     id 10 
     name rtoes
     direction -1.5353e-011 -4.21879e-011 1   
     length 1.20477   
     axis -90 -7.62852e-016 -20   XYZ
    dof rx
    limits (-90.0 20.0)
  end
  begin
     id 11 
     name lowerback
     direction 0.0160353 0.987463 -0.157037   
     length 2.18572   
     axis 0 0 0   XYZ
    dof rx ry rz
    limits (-20.0 45.0)
           (-30.0 30.0)
           (-30.0 30.0)
  end
  begin
     id 12 
     name upperback
     direction -0.00499661 0.999756 0.0215076   
     length 2.18016   
     axis 0 0 0   XYZ
    dof rx ry rz
    limits (-20.0 45.0)
           (-30.0 30.0)
           (-30.0 30.0)
  end
  begin
     id 13 
     name thorax
     direction -0.00921346 0.995333 0.0960619   
     length 2.24923   
     axis 0 0 0   XYZ
    dof rx ry rz
    limits (-20.0 45.0)
           (-30.0 30.0)
           (-30.0 30.0)
  end
  begin
     id 14 
     name lowerneck
     direction 0.0274184 0.991181 0.12965   
     length 1.70911   
     axis 0 0 0   XYZ
    dof rx ry rz
    limits (-20.0 45.0)
           (-30.0 30.0)
           (-30.0 30.0)
  end
  begin
     id 15 
     name upperneck
     direction 0.0015627 0.999959 -0.00893559   
     length 1.69312   
     axis 0 0 0   XYZ
    dof rx ry rz
    limits (-20.0 45.0)
           (-30.0 30.0)
           (-30.0 30.0)
  end
  begin
     id 16
     name head
     direction -0.00230242 0.999856 -0.0168327  
     length 1.80241  
     axis 0 0 0   XYZ
    dof rx ry rz
    limits (-20.0 45.0)
           (-30.0 30.0)
           (-30.0 30.0)
  end
  begin
     id 17 
     name lclavicle
     direction 0.955523 0.290741 -0.0494489  
     length 3.84275  
     axis 0 0 0   XYZ
    dof ry rz
    limits (-20.0 10.0)
           (0.0 20.0)
  end
  begin
     id 18 
     name lhumerus
     direction 1 -4.48967e-011 -3.18382e-028   
     length 5.17714   
     axis 180 -30 -90   XYZ
    dof rx ry rz
    limits (-60.0 90.0)
           (-90.0 90.0)
           (-90.0 90.0)
  end
  begin
     id 19
     name lradius
     direction 1 -4.48968e-011 -2.22911e-027   
     length 3.43679   
     axis 180 -30 -90   XYZ
    dof rx
    limits (-10.0 170.0)
  end
  begin
     id 20
     name lwrist
     direction 1 -4.48951e-011 -6.32245e-027   
     length 1.7184   
     axis 3.57107e-015 90 90   XYZ
    dof ry
    limits (-180.0 0.0)
 end
  begin
     id 21 
     name lhand
     direction 1 -4.48924e-011 -1.26431e-026   
     length 0.573117   
     axis 8.06912e-015 90 90   XYZ
    dof rx rz
    limits (-90.0 90.0)
           (-45.0 45.0)
  end
  begin
     id 22 
     name lfingers
     direction 1 -4.49001e-011 -2.52965e-026   
     length 0.462062   
     axis 1.61381e-014 90 90   XYZ
    dof rx
    limits (0.0 90.0)
  end
  begin
     id 23
     name lthumb
     direction 0.707107 -6.35008e-011 0.707107   
     length 0.663431   
     axis -90 45 -1.62303e-014   XYZ
    dof rx rz
    limits (-45.0 45.0)
           (-45.0 45.0)
  end
  begin
     id 24 
     name rclavicle
     direction -0.963917 0.256881 -0.0698287   
     length 3.73057  
     axis 0 0 0   XYZ 
    dof ry rz
    limits (-10.0 20.0)
           (-20.0 0.0)
  end
  begin
     id 25 
     name rhumerus
     direction -1 -4.48962e-011 -2.73982e-027  
     length 5.23908   
     axis 180 30 90   XYZ
    dof rx ry rz
    limits (-90.0 60.0)
           (-90.0 90.0)
           (-90.0 90.0)
  end
  begin
     id 26 
     name rradius
     direction -1 -4.48968e-011 -4.33218e-027   
     length 3.46485   
     axis 180 30 90   XYZ
    dof rx
    limits (-10.0 170.0)
  end
  begin
     id 27 
     name rwrist
     direction -1 -4.48989e-011 -6.32372e-027   
     length 1.73243   
     axis 3.57107e-015 -90 -90   XYZ
    dof ry
    limits (-180.0 0.0)
  end
  begin
     id 28
     name rhand
     direction -1 -4.48948e-011 -1.26448e-026   
     length 0.608752   
     axis 8.06912e-015 -90 -90   XYZ
    dof rx rz
    limits (-90.0 90.0)
           (-45.0 45.0)
  end
  begin
     id 29
     name rfingers
     direction -1 -4.48962e-011 -2.52913e-026   
     length 0.490792   
     axis 1.61381e-014 -90 -90   XYZ
    dof rx
    limits (0.0 90.0)
  end
  begin
     id 30
     name rthumb
     direction -0.707107 -6.34878e-011 0.707107   
     length 0.704682   
     axis -90 -45 1.62303e-014   XYZ
    dof rx rz
    limits (-45.0 45.0)
           (-45.0 45.0)
  end
:hierarchy
  begin
    root lhipjoint rhipjoint lowerback
    lhipjoint lfemur
    lfemur ltibia
    ltibia lfoot
    lfoot ltoes
    rhipjoint rfemur
    rfemur rtibia
    rtibia rfoot
    rfoot rtoes
    lowerback upperback
    upperback thorax
    thorax lowerneck lclavicle rclavicle
    lowerneck upperneck
    upperneck head
    lclavicle lhumerus
    lhumerus lradius
    lradius lwrist
    lwrist lhand lthumb
    lhand lfingers
    rclavicle rhumerus
    rhumerus rradius
    rradius rwrist
    rwrist rhand rthumb
    rhand rfingers
  end

#!OML:ASF G:\JayActor3\Patient Classification 1\Patient 1\Session 6\male.ASF
:FULLY-SPECIFIED
:DEGREES
1120
root -4.41101 15.986 3.77426 183.687 -34.8718 -188.403
lowerback -10.8645 -1.24529 1.89985
upperback -0.482902 -1.85464 -1.77162
thorax 5.4716 -0.871324 -3.21614
lowerneck -3.18875 11.5661 7.7296
upperneck 24.0824 17.6844 -18.2245
head 10.6528 6.4267 -5.98574
rclavicle 3.12092e-014 4.21423e-014
rhumerus -78.9296 29.9696 -113.355
rradius 85.4051
rwrist 21.7467
rhand -55.2652 36.1499
rfingers 7.12502
rthumb -27.6338 8.15938
lclavicle 3.12092e-014 4.21423e-014
lhumerus -19.2196 -47.6964 95.6241
lradius 100.955
lwrist -12.7252
lhand 12.1041 49.804
lfingers 7.12502
lthumb 37.1192 75.8376
rfemur -18.4983 7.55938 12.1686
rtibia 51.8445
rfoot -30.041 -16.3491
rtoes -8.87212
lfemur 1.01524 26.7337 -27.9075
ltibia 23.7391
lfoot -16.9417 -22.1521
ltoes 12.5506
1121
root -4.40735 15.9868 3.77682 183.608 -34.8311 -188.304
lowerback -10.8384 -1.25019 1.96592
upperback -0.483115 -1.87027 -1.72673
thorax 5.45511 -0.877682 -3.20762
lowerneck -3.15977 11.5752 7.72518
upperneck 24.0331 17.6983 -18.2603
head 10.6346 6.43368 -5.99602
rclavicle -8.68689e-014 -9.54166e-015
rhumerus -78.9646 29.9974 -113.344
rradius 85.4259
rwrist 21.7535
rhand -55.2757 36.1947
rfingers 7.12502
rthumb -27.6438 8.20579
lclavicle -8.68689e-014 -9.54166e-015
lhumerus -19.2252 -47.62 95.6538
lradius 100.978
lwrist -12.6472
lhand 12.1584 49.8067
lfingers 7.12502
lthumb 37.1705 75.8269
rfemur -18.4695 7.52799 12.2444
rtibia 51.7678
rfoot -29.972 -16.2952
rtoes -8.97095
lfemur 0.984746 26.5917 -27.8686
ltibia 23.7873
lfoot -17.1503 -21.8891
ltoes 12.1413
1122
root -4.40362 15.9878 3.7794 183.541 -34.7824 -188.217
lowerback -10.8128 -1.25862 2.0183
upperback -0.489262 -1.88924 -1.68066
thorax 5.43287 -0.886349 -3.19046
lowerneck -3.12176 11.5884 7.72254
upperneck 23.981 17.7181 -18.3011
head 10.6153 6.4433 -6.00805
rclavicle -3.8763e-014 1.59028e-014
rhumerus -79.0177 30.0416 -113.348
rradius 85.4419
rwrist 21.7579
rhand -55.2853 36.1936
rfingers 7.12502
rthumb -27.653 8.20617
lclavicle -3.8763e-014 1.59028e-014
lhumerus -19.2426 -47.521 95.6912
lradius 101.007
lwrist -12.5584
lhand 12.1993 49.8251
lfingers 7.12502
lthumb 37.2092 75.8352
rfemur -18.4489 7.48884 12.3049
rtibia 51.6908
rfoot -29.8997 -16.2246
rtoes -9.05975
lfemur 0.948472 26.4515 -27.8423
ltibia 23.8328
lfoot -17.3347 -21.6308
ltoes 11.7616
1123
root -4.39981 15.9891 3.78206 183.481 -34.7275 -188.135
lowerback -10.7857 -1.27061 2.06304
upperback -0.499899 -1.91218 -1.63387
thorax 5.40507 -0.897434 -3.16867
lowerneck -3.08043 11.6054 7.72364
upperneck 23.9276 17.7431 -18.3456
head 10.5965 6.4554 -6.0215
rclavicle -1.5207e-014 -1.03368e-014
rhumerus -79.0818 30.1001 -113.367
rradius 85.4531
rwrist 21.7534
rhand -55.3022 36.1971
rfingers 7.12502
rthumb -27.6691 8.21217
lclavicle -1.5207e-014 -1.03368e-014
lhumerus -19.2654 -47.4012 95.7276
lradius 101.039
lwrist -12.4695
lhand 12.2283 49.8558
lfingers 7.12502
lthumb 37.2366 75.8587
rfemur -18.4349 7.44184 12.3569
rtibia 51.6129
rfoot -29.818 -16.1468
rtoes -9.15978
lfemur 0.908664 26.3218 -27.8199
ltibia 23.8749
lfoot -17.494 -21.3877
ltoes 11.4236
1124
root -4.39597 15.9908 3.78467 183.428 -34.666 -188.058
lowerback -10.7591 -1.28175 2.10446
upperback -0.513302 -1.93361 -1.58956
thorax 5.3748 -0.907999 -3.14732
lowerneck -3.04471 11.6231 7.73131
upperneck 23.8806 17.7694 -18.3893
head 10.5821 6.46799 -6.03551
rclavicle 7.31528e-014 7.15625e-015
rhumerus -79.1471 30.1603 -113.395
rradius 85.458
rwrist 21.7473
rhand -55.3352 36.1822
rfingers 7.12502
rthumb -27.7007 8.20235
lclavicle 7.31528e-014 7.15625e-015
lhumerus -19.2886 -47.2729 95.759
lradius 101.074
lwrist -12.3711
lhand 12.2478 49.9048
lfingers 7.12502
lthumb 37.2551 75.9029
rfemur -18.4261 7.38882 12.4028
rtibia 51.5343
rfoot -29.731 -16.0615
rtoes -9.26801
lfemur 0.868429 26.2116 -27.7968
ltibia 23.9116
lfoot -17.6295 -21.1676
ltoes 11.1105
1125
root -4.39214 15.9927 3.78721 183.374 -34.6008 -187.981
lowerback -10.7318 -1.2925 2.14627
upperback -0.527274 -1.95449 -1.54666
thorax 5.34349 -0.918338 -3.12755
lowerneck -3.01456 11.6404 7.74567
upperneck 23.8362 17.7955 -18.4353
head 10.5707 6.48046 -6.05138
rclavicle -1.36167e-014 -8.74653e-015
rhumerus -79.208 30.2219 -113.428
rradius 85.4516
rwrist 21.7312
rhand -55.3634 36.1817
rfingers 7.12502
rthumb -27.7277 8.20622
lclavicle -1.36167e-014 -8.74653e-015
lhumerus -19.311 -47.1345 95.7848
lradius 101.111
lwrist -12.2625
lhand 12.2653 49.9547
lfingers 7.12502
lthumb 37.2716 75.9485
rfemur -18.4183 7.32798 12.4479
rtibia 51.4549
rfoot -29.6416 -15.9707
rtoes -9.38853
lfemur 0.833398 26.1251 -27.7662
ltibia 23.9421
lfoot -17.7511 -20.9711
ltoes 10.8152
1126
root -4.38839 15.9947 3.78961 183.32 -34.5307 -187.905
lowerback -10.7045 -1.30001 2.19087
upperback -0.539531 -1.97114 -1.50842
thorax 5.31405 -0.926434 -3.11369
lowerneck -2.98922 11.6562 7.76545
upperneck 23.7919 17.8196 -18.4815
head 10.5606 6.49242 -6.06821
rclavicle 4.57205e-015 -2.38542e-015
rhumerus -79.2647 30.2739 -113.461
rradius 85.4525
rwrist 21.7182
rhand -55.4016 36.1591
rfingers 7.12502
rthumb -27.7642 8.18952
lclavicle 4.57205e-015 -2.38542e-015
lhumerus -19.3287 -46.9925 95.8003
lradius 101.152
lwrist -12.132
lhand 12.2932 49.9962
lfingers 7.12502
lthumb 37.2979 75.983
rfemur -18.4086 7.26067 12.4911
rtibia 51.3758
rfoot -29.5518 -15.875
rtoes -9.51819
lfemur 0.806553 26.0608 -27.7289
ltibia 23.9673
lfoot -17.8586 -20.798
ltoes 10.5502
1127
root -4.38476 15.9966 3.79188 183.262 -34.4572 -187.826
lowerback -10.6791 -1.30444 2.24263
upperback -0.549181 -1.98431 -1.4742
thorax 5.28823 -0.932506 -3.1077
lowerneck -2.96783 11.6698 7.79183
upperneck 23.7432 17.8406 -18.5311
head 10.5501 6.5037 -6.08737
rclavicle -1.61016e-014 -2.54444e-014
rhumerus -79.3147 30.3172 -113.493
rradius 85.4527
rwrist 21.6982
rhand -55.4347 36.1439
rfingers 7.12502
rthumb -27.7958 8.17942
lclavicle -1.61016e-014 -2.54444e-014
lhumerus -19.3442 -46.8481 95.8068
lradius 101.201
lwrist -11.9778
lhand 12.3302 50.0216
lfingers 7.12502
lthumb 37.3329 75.9993
rfemur -18.3968 7.18695 12.5364
rtibia 51.298
rfoot -29.4659 -15.7729
rtoes -9.6487
lfemur 0.787245 26.0142 -27.683
ltibia 23.9886
lfoot -17.9567 -20.6412
ltoes 10.3098
1128
root -4.38111 15.9983 3.79403 183.198 -34.382 -187.742
lowerback -10.6528 -1.30624 2.30081
upperback -0.556417 -1.99453 -1.44162
thorax 5.26445 -0.936865 -3.10668
lowerneck -2.94386 11.6814 7.82035
upperneck 23.683 17.8587 -18.5861
head 10.5352 6.51461 -6.10892
rclavicle -7.55382e-015 1.35174e-014
rhumerus -79.3609 30.3499 -113.514
rradius 85.4665
rwrist 21.6878
rhand -55.4607 36.1341
rfingers 7.12502
rthumb -27.8207 8.17364
lclavicle -7.55382e-015 1.35174e-014
lhumerus -19.3599 -46.7039 95.8072
lradius 101.26
lwrist -11.7993
lhand 12.3701 50.0433
lfingers 7.12502
lthumb 37.3707 76.011
rfemur -18.3821 7.1102 12.5869
rtibia 51.2226
rfoot -29.3851 -15.6658
rtoes -9.76658
lfemur 0.774697 25.9734 -27.629
ltibia 24.0077
lfoot -18.055 -20.4854
ltoes 10.0862
1129
root -4.37739 15.9998 3.79614 183.132 -34.3073 -187.658
lowerback -10.6268 -1.30685 2.36146
upperback -0.561049 -2.00327 -1.41119
thorax 5.24347 -0.940321 -3.10915
lowerneck -2.9142 11.6926 7.85323
upperneck 23.6053 17.8765 -18.6531
head 10.5145 6.52645 -6.13529
rclavicle 5.92378e-014 3.97569e-015
rhumerus -79.3983 30.3761 -113.526
rradius 85.4848
rwrist 21.6839
rhand -55.4828 36.1376
rfingers 7.12502
rthumb -27.8419 8.18058
lclavicle 5.92378e-014 3.97569e-015
lhumerus -19.3758 -46.5584 95.803
lradius 101.327
lwrist -11.6119
lhand 12.4048 50.062
lfingers 7.12502
lthumb 37.4035 76.021
rfemur -18.3669 7.02924 12.6378
rtibia 51.151
rfoot -29.3087 -15.5517
rtoes -9.85625
lfemur 0.765344 25.9271 -27.5754
ltibia 24.0258
lfoot -18.1623 -20.3158
ltoes 9.84465
1130
root -4.37338 16.0012 3.79832 183.067 -34.2362 -187.577
lowerback -10.5962 -1.31244 2.41484
upperback -0.566238 -2.01776 -1.37758
thorax 5.21924 -0.946892 -3.10483
lowerneck -2.87252 11.7075 7.88651
upperneck 23.5069 17.9005 -18.7399
head 10.4871 6.54123 -6.16808
rclavicle -3.67752e-015 1.11319e-014
rhumerus -79.438 30.4088 -113.529
rradius 85.511
rwrist 21.6906
rhand -55.4913 36.1023
rfingers 7.12502
rthumb -27.85 8.14654
lclavicle -3.67752e-015 1.11319e-014
lhumerus -19.3991 -46.3964 95.8025
lradius 101.405
lwrist -11.4195
lhand 12.4408 50.0802
lfingers 7.12502
lthumb 37.4375 76.0303
rfemur -18.3509 6.94374 12.686
rtibia 51.0831
rfoot -29.2395 -15.4266
rtoes -9.9063
lfemur 0.756891 25.8643 -27.5285
ltibia 24.0433
lfoot -18.2732 -20.1256
ltoes 9.59508
1131
root -4.36914 16.0024 3.80065 182.997 -34.1679 -187.5
lowerback -10.5563 -1.32135 2.46235
upperback -0.568968 -2.03565 -1.34285
thorax 5.19244 -0.955265 -3.0962
lowerneck -2.8258 11.7253 7.92453
upperneck 23.386 17.9299 -18.8466
head 10.4542 6.55902 -6.20764
rclavicle 1.26924e-013 7.15625e-015
rhumerus -79.4714 30.4414 -113.52
rradius 85.5451
rwrist 21.7044
rhand -55.4862 36.0723
rfingers 7.12502
rthumb -27.8451 8.11577
lclavicle 1.26924e-013 7.15625e-015
lhumerus -19.42 -46.2209 95.7956
lradius 101.489
lwrist -11.2201
lhand 12.4913 50.0939
lfingers 7.12502
lthumb 37.4853 76.0313
rfemur -18.3307 6.85417 12.7326
rtibia 51.0178
rfoot -29.1695 -15.2982
rtoes -9.9464
lfemur 0.752734 25.7851 -27.4872
ltibia 24.0605
lfoot -18.3933 -19.9075
ltoes 9.31192
1132
root -4.36479 16.0038 3.80313 182.925 -34.0995 -187.423
lowerback -10.5094 -1.33166 2.50835
upperback -0.569151 -2.05493 -1.30764
thorax 5.16437 -0.964313 -3.0862
lowerneck -2.77599 11.7444 7.96717
upperneck 23.24 17.962 -18.9717
head 10.4145 6.57906 -6.25354
rclavicle 1.05654e-013 -1.43125e-014
rhumerus -79.4967 30.473 -113.5
rradius 85.5808
rwrist 21.731
rhand -55.4878 36.0353
rfingers 7.12502
rthumb -27.8467 8.07907
lclavicle 1.05654e-013 -1.43125e-014
lhumerus -19.4358 -46.028 95.7813
lradius 101.581
lwrist -10.972
lhand 12.5518 50.1124
lfingers 7.12502
lthumb 37.5424 76.0346
rfemur -18.3087 6.76421 12.7807
rtibia 50.9535
rfoot -29.0977 -15.1694
rtoes -9.97046
lfemur 0.748332 25.6868 -27.4516
ltibia 24.0788
lfoot -18.52 -19.659
ltoes 8.98762
